<svg width="25" height="25" viewBox="0 0 25 25" fill="none" xmlns="http://www.w3.org/2000/svg">
<path d="M12.5 12.5V21.5M12.5 12.5L10 14.5M12.5 12.5L15 14.5M5.53401 9.617C4.58822 9.855 3.76189 10.4302 3.21026 11.2344C2.65864 12.0387 2.41969 13.0168 2.53831 13.9848C2.65694 14.9528 3.12497 15.8442 3.85447 16.4915C4.58398 17.1388 5.52474 17.4974 6.50001 17.5H7.50001" stroke="#191D23" stroke-width="2" stroke-linecap="round" stroke-linejoin="round"/>
<path d="M16.33 7.63802C15.9882 6.2846 15.1446 5.11176 13.9701 4.35728C12.7957 3.6028 11.3783 3.32311 10.0053 3.57493C8.63225 3.82674 7.40634 4.59121 6.57607 5.71336C5.74579 6.83552 5.37327 8.23139 5.53401 9.61802C5.53401 9.61802 5.68701 10.5 6.00001 11" stroke="#191D23" stroke-width="2" stroke-linecap="round" stroke-linejoin="round"/>
<path d="M17.5 17.5C18.206 17.4995 18.904 17.3495 19.5479 17.0599C20.1917 16.7702 20.767 16.3475 21.2357 15.8195C21.7045 15.2915 22.0561 14.6702 22.2674 13.9965C22.4787 13.3229 22.545 12.6121 22.4618 11.9109C22.3786 11.2098 22.1479 10.5343 21.7848 9.92874C21.4217 9.32321 20.9345 8.80145 20.3552 8.39778C19.776 7.99412 19.1178 7.71772 18.424 7.58676C17.7302 7.4558 17.0166 7.47327 16.33 7.638L15 8" stroke="#191D23" stroke-width="2" stroke-linecap="round" stroke-linejoin="round"/>
</svg>
